# xmcd
#
# Track frame offsets: 
#        150
#        16201
#        41270
#        68826
#        85773
#        117179
#        131234
#        150681
#        177411
#        199286
#        219916
#        238287
#
# Disc length: 3445 seconds
#
# Revision: 1
# Processed by: cddbd v1.5.2PL0 Copyright (c) Steve Scherf et al.
# Submitted via: ExactAudioCopy v1.0b3
#
DISCID=a30d730c
DTITLE=Various Artist - Beginners Guide To Gospel (Amazing Grace:Soul
DTITLE=Gospel)
DYEAR=2004
DGENRE=Gospel
TTITLE0=Al Green - Higher Plane
TTITLE1=Dorothy Love Coates - I'll Make It
TTITLE2=Otis Clay - When The Gates Swing Open
TTITLE3=Original Soul Stirrers - I Love The Lord
TTITLE4=Cleophus Robinson Jr - Praise The Lord
TTITLE5=Shirley Caesar - I Feel Good
TTITLE6=Violinaires - Nobody But You Lord
TTITLE7=Gerald Sisters - Lead Me
TTITLE8=Bobby Jones - Call Jesus
TTITLE9=Inez Andrews - Courage Lord
TTITLE10=Vanessa Bell Armstrong - What He's Done For Me
TTITLE11=Sensational Harmonizers - He Never Lost A Battle
EXTD=Beginners Guide To Gospel
EXTT0=
EXTT1=
EXTT2=
EXTT3=
EXTT4=
EXTT5=
EXTT6=
EXTT7=
EXTT8=
EXTT9=
EXTT10=
EXTT11=
PLAYORDER=
